<mxfile host="app.diagrams.net" modified="2023-07-30T19:42:34.379Z" agent="Mozilla/5.0 (Windows NT 10.0; Win64; x64) AppleWebKit/537.36 (KHTML, like Gecko) Chrome/115.0.0.0 Safari/537.36" etag="ZnzFX4lrgOZWm3d7-bnC" version="21.6.5" type="google" pages="2">
  <diagram name="Page-1" id="kHSkvbDWZpz4N_m8c6pU">
    <mxGraphModel grid="1" page="1" gridSize="10" guides="1" tooltips="1" connect="1" arrows="1" fold="1" pageScale="1" pageWidth="1100" pageHeight="850" math="0" shadow="0">
      <root>
        <mxCell id="0" />
        <mxCell id="1" parent="0" />
        <mxCell id="m2Kh-LTlpdQUGdOPd4iU-1" value="Drugs&lt;br&gt;&lt;br&gt;SMILES" style="shape=cylinder3;whiteSpace=wrap;html=1;boundedLbl=1;backgroundOutline=1;size=15;" vertex="1" parent="1">
          <mxGeometry x="320" y="110" width="120" height="140" as="geometry" />
        </mxCell>
        <mxCell id="m2Kh-LTlpdQUGdOPd4iU-2" value="DDI" style="shape=cylinder3;whiteSpace=wrap;html=1;boundedLbl=1;backgroundOutline=1;size=15;" vertex="1" parent="1">
          <mxGeometry x="490" y="110" width="120" height="140" as="geometry" />
        </mxCell>
        <mxCell id="m2Kh-LTlpdQUGdOPd4iU-3" value="Visit History" style="shape=cylinder3;whiteSpace=wrap;html=1;boundedLbl=1;backgroundOutline=1;size=15;" vertex="1" parent="1">
          <mxGeometry x="670" y="110" width="120" height="140" as="geometry" />
        </mxCell>
        <mxCell id="m2Kh-LTlpdQUGdOPd4iU-4" value="PubMed" style="shape=cylinder3;whiteSpace=wrap;html=1;boundedLbl=1;backgroundOutline=1;size=15;fillColor=#d5e8d4;strokeColor=#82b366;" vertex="1" parent="1">
          <mxGeometry x="830" y="110" width="120" height="140" as="geometry" />
        </mxCell>
        <mxCell id="m2Kh-LTlpdQUGdOPd4iU-5" value="Drug Generation" style="rounded=1;whiteSpace=wrap;html=1;" vertex="1" parent="1">
          <mxGeometry x="90" y="330" width="190" height="60" as="geometry" />
        </mxCell>
        <mxCell id="m2Kh-LTlpdQUGdOPd4iU-6" value="Personalized&lt;br&gt;Drug recommendation&amp;nbsp;" style="rounded=1;whiteSpace=wrap;html=1;" vertex="1" parent="1">
          <mxGeometry x="90" y="410" width="190" height="60" as="geometry" />
        </mxCell>
        <mxCell id="m2Kh-LTlpdQUGdOPd4iU-7" value="Drug Properties Prediction" style="rounded=1;whiteSpace=wrap;html=1;" vertex="1" parent="1">
          <mxGeometry x="90" y="490" width="190" height="60" as="geometry" />
        </mxCell>
        <mxCell id="m2Kh-LTlpdQUGdOPd4iU-8" value="Drug Information Retrieval" style="rounded=1;whiteSpace=wrap;html=1;" vertex="1" parent="1">
          <mxGeometry x="90" y="570" width="190" height="60" as="geometry" />
        </mxCell>
        <mxCell id="m2Kh-LTlpdQUGdOPd4iU-11" style="edgeStyle=orthogonalEdgeStyle;rounded=0;orthogonalLoop=1;jettySize=auto;html=1;entryX=0.5;entryY=1;entryDx=0;entryDy=0;entryPerimeter=0;" edge="1" parent="1" source="m2Kh-LTlpdQUGdOPd4iU-10" target="m2Kh-LTlpdQUGdOPd4iU-3">
          <mxGeometry relative="1" as="geometry" />
        </mxCell>
        <mxCell id="m2Kh-LTlpdQUGdOPd4iU-10" value="LLM" style="rounded=1;whiteSpace=wrap;html=1;" vertex="1" parent="1">
          <mxGeometry x="290" y="680" width="190" height="60" as="geometry" />
        </mxCell>
        <mxCell id="NIp4C8ODnTHQzsT4kfPO-1" value="QA (Persian)" style="shape=cylinder3;whiteSpace=wrap;html=1;boundedLbl=1;backgroundOutline=1;size=15;fillColor=#d5e8d4;strokeColor=#82b366;" vertex="1" parent="1">
          <mxGeometry x="990" y="170" width="60" height="80" as="geometry" />
        </mxCell>
        <mxCell id="NIp4C8ODnTHQzsT4kfPO-2" value="QA&amp;nbsp;&lt;br&gt;(Eng)" style="shape=cylinder3;whiteSpace=wrap;html=1;boundedLbl=1;backgroundOutline=1;size=15;fillColor=#d5e8d4;strokeColor=#82b366;" vertex="1" parent="1">
          <mxGeometry x="990" y="110" width="60" height="80" as="geometry" />
        </mxCell>
      </root>
    </mxGraphModel>
  </diagram>
  <diagram id="7iglM_a-CgXpEfniaJwY" name="Page-2">
    <mxGraphModel grid="1" page="1" gridSize="10" guides="1" tooltips="1" connect="1" arrows="1" fold="1" pageScale="1" pageWidth="1100" pageHeight="850" math="0" shadow="0">
      <root>
        <mxCell id="0" />
        <mxCell id="1" parent="0" />
        <mxCell id="Z2G0nfCpjpHWtx5BqbVo-6" style="edgeStyle=orthogonalEdgeStyle;rounded=0;orthogonalLoop=1;jettySize=auto;html=1;entryX=0.49;entryY=-0.014;entryDx=0;entryDy=0;entryPerimeter=0;" edge="1" parent="1" source="Z2G0nfCpjpHWtx5BqbVo-1" target="Z2G0nfCpjpHWtx5BqbVo-5">
          <mxGeometry relative="1" as="geometry" />
        </mxCell>
        <mxCell id="Z2G0nfCpjpHWtx5BqbVo-1" value="PubMed" style="shape=cylinder3;whiteSpace=wrap;html=1;boundedLbl=1;backgroundOutline=1;size=15;fillColor=#d5e8d4;strokeColor=#82b366;" vertex="1" parent="1">
          <mxGeometry x="330" y="50" width="120" height="140" as="geometry" />
        </mxCell>
        <mxCell id="Z2G0nfCpjpHWtx5BqbVo-4" style="edgeStyle=orthogonalEdgeStyle;rounded=0;orthogonalLoop=1;jettySize=auto;html=1;" edge="1" parent="1" source="Z2G0nfCpjpHWtx5BqbVo-2" target="Z2G0nfCpjpHWtx5BqbVo-5">
          <mxGeometry relative="1" as="geometry">
            <mxPoint x="290" y="335" as="targetPoint" />
          </mxGeometry>
        </mxCell>
        <mxCell id="Z2G0nfCpjpHWtx5BqbVo-23" style="edgeStyle=orthogonalEdgeStyle;rounded=0;orthogonalLoop=1;jettySize=auto;html=1;entryX=0.5;entryY=1;entryDx=0;entryDy=0;" edge="1" parent="1" source="Z2G0nfCpjpHWtx5BqbVo-2" target="Z2G0nfCpjpHWtx5BqbVo-14">
          <mxGeometry relative="1" as="geometry">
            <Array as="points">
              <mxPoint x="-20" y="530" />
              <mxPoint x="750" y="530" />
            </Array>
          </mxGeometry>
        </mxCell>
        <mxCell id="Z2G0nfCpjpHWtx5BqbVo-2" value="" style="rounded=1;whiteSpace=wrap;html=1;" vertex="1" parent="1">
          <mxGeometry x="-70" y="320" width="160" height="30" as="geometry" />
        </mxCell>
        <mxCell id="Z2G0nfCpjpHWtx5BqbVo-3" value="" style="editableCssRules=.*;html=1;shape=image;verticalLabelPosition=bottom;labelBackgroundColor=#ffffff;verticalAlign=top;aspect=fixed;imageAspect=0;image=data:image/svg+xml,PHN2ZyB4bWxucz0iaHR0cDovL3d3dy53My5vcmcvMjAwMC9zdmciIHhtbG5zOnY9Imh0dHBzOi8vdmVjdGEuaW8vbmFubyIgd2lkdGg9IjIwIiBoZWlnaHQ9IjE4IiB2aWV3Qm94PSIwIDAgMjAgMTgiPiYjeGE7CTxzdHlsZSB0eXBlPSJ0ZXh0L2NzcyI+JiN4YTsJLnN0MHtmaWxsOiM0Mjg1ZjQ7fSYjeGE7CS5zdDF7ZmlsbDojNjY5ZGY2O2ZpbGwtcnVsZTpldmVub2RkfSYjeGE7CTwvc3R5bGU+JiN4YTsJPHBhdGggY2xhc3M9InN0MCIgZD0iTTE1LjkxIDcuMmgtMS44MkwxMCAxOGgxLjgybDEtMi43aDQuMzJsMSAyLjdIMjB6bS0yLjM5IDYuM0wxNSA5LjZsMS40OCAzLjl6Ii8+JiN4YTsJPHBhdGggY2xhc3M9InN0MSIgZD0iTTEwLjc5IDExLjc3TDguNDggOS41MWgwYTE1LjYyIDE1LjYyIDAgMCAwIDMuNC01LjkxaDIuNjdWMS44SDguMThWMEg2LjM2djEuOEgwdjEuNzloMTAuMTVhMTQuMDYgMTQuMDYgMCAwIDEtMi44OCA0LjgyIDE0LjU1IDE0LjU1IDAgMCAxLTIuMS0zSDMuMzVhMTYgMTYgMCAwIDAgMi43MSA0LjFMMS40NCAxNGwxLjI5IDEuMyA0LjU0LTQuNSAyLjgzIDIuOHoiLz4mI3hhOzwvc3ZnPg==;" vertex="1" parent="1">
          <mxGeometry x="-20" y="300" width="40" height="36" as="geometry" />
        </mxCell>
        <mxCell id="Z2G0nfCpjpHWtx5BqbVo-5" value="" style="verticalLabelPosition=bottom;dashed=0;shadow=0;html=1;align=center;verticalAlign=top;shape=mxgraph.cabinets.terminal_4mm2_x10;" vertex="1" parent="1">
          <mxGeometry x="330" y="286.25" width="122.5" height="97.5" as="geometry" />
        </mxCell>
        <mxCell id="Z2G0nfCpjpHWtx5BqbVo-7" value="doc1" style="rounded=1;whiteSpace=wrap;html=1;" vertex="1" parent="1">
          <mxGeometry x="500" y="285" width="70" height="80" as="geometry" />
        </mxCell>
        <mxCell id="Z2G0nfCpjpHWtx5BqbVo-8" value="doc1" style="rounded=1;whiteSpace=wrap;html=1;" vertex="1" parent="1">
          <mxGeometry x="510" y="295" width="70" height="80" as="geometry" />
        </mxCell>
        <mxCell id="Z2G0nfCpjpHWtx5BqbVo-9" value="doc1" style="rounded=1;whiteSpace=wrap;html=1;" vertex="1" parent="1">
          <mxGeometry x="520" y="305" width="70" height="80" as="geometry" />
        </mxCell>
        <mxCell id="Z2G0nfCpjpHWtx5BqbVo-10" value="doc1" style="rounded=1;whiteSpace=wrap;html=1;" vertex="1" parent="1">
          <mxGeometry x="530" y="315" width="70" height="80" as="geometry" />
        </mxCell>
        <mxCell id="Z2G0nfCpjpHWtx5BqbVo-13" style="edgeStyle=orthogonalEdgeStyle;rounded=0;orthogonalLoop=1;jettySize=auto;html=1;" edge="1" parent="1" source="Z2G0nfCpjpHWtx5BqbVo-12" target="Z2G0nfCpjpHWtx5BqbVo-14">
          <mxGeometry relative="1" as="geometry">
            <mxPoint x="710" y="335" as="targetPoint" />
          </mxGeometry>
        </mxCell>
        <mxCell id="Z2G0nfCpjpHWtx5BqbVo-12" value="" style="shape=curlyBracket;whiteSpace=wrap;html=1;rounded=1;flipH=1;labelPosition=right;verticalLabelPosition=middle;align=left;verticalAlign=middle;" vertex="1" parent="1">
          <mxGeometry x="640" y="275" width="20" height="120" as="geometry" />
        </mxCell>
        <mxCell id="Z2G0nfCpjpHWtx5BqbVo-20" value="" style="edgeStyle=orthogonalEdgeStyle;rounded=0;orthogonalLoop=1;jettySize=auto;html=1;" edge="1" parent="1" source="Z2G0nfCpjpHWtx5BqbVo-14" target="Z2G0nfCpjpHWtx5BqbVo-19">
          <mxGeometry relative="1" as="geometry" />
        </mxCell>
        <mxCell id="Z2G0nfCpjpHWtx5BqbVo-14" value="&lt;font style=&quot;font-size: 10px;&quot;&gt;Summariziation&lt;br&gt;&lt;/font&gt;" style="shape=ext;double=1;rounded=1;whiteSpace=wrap;html=1;" vertex="1" parent="1">
          <mxGeometry x="710" y="298.12" width="80" height="73.75" as="geometry" />
        </mxCell>
        <mxCell id="Z2G0nfCpjpHWtx5BqbVo-15" value="Intent classification" style="rounded=1;whiteSpace=wrap;html=1;fillColor=#f5f5f5;fontColor=#BDBDBD;strokeColor=#B8B8B8;" vertex="1" parent="1">
          <mxGeometry x="140" y="305" width="120" height="60" as="geometry" />
        </mxCell>
        <mxCell id="Z2G0nfCpjpHWtx5BqbVo-16" value="Drug Bank" style="shape=cylinder3;whiteSpace=wrap;html=1;boundedLbl=1;backgroundOutline=1;size=15;fillColor=#d5e8d4;strokeColor=#82b366;" vertex="1" parent="1">
          <mxGeometry x="200" y="50" width="120" height="140" as="geometry" />
        </mxCell>
        <mxCell id="Z2G0nfCpjpHWtx5BqbVo-17" value="LABSE&lt;br&gt;MPNET" style="text;html=1;strokeColor=none;fillColor=none;align=center;verticalAlign=middle;whiteSpace=wrap;rounded=0;" vertex="1" parent="1">
          <mxGeometry x="20" y="353.75" width="60" height="30" as="geometry" />
        </mxCell>
        <mxCell id="Z2G0nfCpjpHWtx5BqbVo-18" value="Vector-search" style="text;html=1;strokeColor=none;fillColor=none;align=center;verticalAlign=middle;whiteSpace=wrap;rounded=0;" vertex="1" parent="1">
          <mxGeometry x="360" y="395" width="60" height="30" as="geometry" />
        </mxCell>
        <mxCell id="Z2G0nfCpjpHWtx5BqbVo-19" value="Translate" style="whiteSpace=wrap;html=1;rounded=1;" vertex="1" parent="1">
          <mxGeometry x="840" y="304.995" width="120" height="60" as="geometry" />
        </mxCell>
        <mxCell id="Z2G0nfCpjpHWtx5BqbVo-21" value="" style="rounded=1;whiteSpace=wrap;html=1;fillColor=none;arcSize=7;" vertex="1" parent="1">
          <mxGeometry x="120" y="225" width="500" height="235" as="geometry" />
        </mxCell>
        <mxCell id="Z2G0nfCpjpHWtx5BqbVo-22" value="Elastic search / Milvus" style="text;html=1;strokeColor=none;fillColor=none;align=center;verticalAlign=middle;whiteSpace=wrap;rounded=0;" vertex="1" parent="1">
          <mxGeometry x="120" y="460" width="130" height="30" as="geometry" />
        </mxCell>
        <mxCell id="Z2G0nfCpjpHWtx5BqbVo-24" value="Prompting LLM" style="rounded=1;whiteSpace=wrap;html=1;" vertex="1" parent="1">
          <mxGeometry x="680" y="251.25" width="60" height="35" as="geometry" />
        </mxCell>
        <mxCell id="Z2G0nfCpjpHWtx5BqbVo-25" value="BERT-based&lt;br&gt;Summarization" style="rounded=1;whiteSpace=wrap;html=1;fillColor=#dae8fc;strokeColor=#6c8ebf;" vertex="1" parent="1">
          <mxGeometry x="750" y="250" width="100" height="35" as="geometry" />
        </mxCell>
        <mxCell id="Z2G0nfCpjpHWtx5BqbVo-26" value="Fine-tune" style="rounded=1;whiteSpace=wrap;html=1;" vertex="1" parent="1">
          <mxGeometry x="-60" y="390" width="160" height="30" as="geometry" />
        </mxCell>
        <mxCell id="7t1HRc9dxXTacDD9y-vy-1" value="Visit History" style="shape=cylinder3;whiteSpace=wrap;html=1;boundedLbl=1;backgroundOutline=1;size=15;fillColor=#fff2cc;strokeColor=#d6b656;" vertex="1" parent="1">
          <mxGeometry x="480" y="65" width="110" height="110" as="geometry" />
        </mxCell>
      </root>
    </mxGraphModel>
  </diagram>
</mxfile>
